<mxfile host="Electron" modified="2024-01-31T10:31:13.300Z" agent="Mozilla/5.0 (Windows NT 10.0; Win64; x64) AppleWebKit/537.36 (KHTML, like Gecko) draw.io/23.0.2 Chrome/120.0.6099.109 Electron/28.1.0 Safari/537.36" etag="3XxUqKj4w2l_iQF-17C0" version="23.0.2" type="device">
  <diagram name="第 1 页" id="xW4iUKlTq-1__aPXUTCL">
    <mxGraphModel dx="2205" dy="1023" grid="1" gridSize="10" guides="1" tooltips="1" connect="1" arrows="1" fold="1" page="1" pageScale="1" pageWidth="827" pageHeight="1169" math="1" shadow="0">
      <root>
        <mxCell id="0" />
        <mxCell id="1" parent="0" />
        <mxCell id="2EnQdZIcltZA5WUZ9vYE-22" value="" style="group" vertex="1" connectable="0" parent="1">
          <mxGeometry x="25" y="160" width="270" height="222" as="geometry" />
        </mxCell>
        <mxCell id="2EnQdZIcltZA5WUZ9vYE-1" value="A" style="ellipse;whiteSpace=wrap;html=1;fontFamily=Times New Roman;fontSize=19;" vertex="1" parent="2EnQdZIcltZA5WUZ9vYE-22">
          <mxGeometry x="115" width="40" height="40" as="geometry" />
        </mxCell>
        <mxCell id="2EnQdZIcltZA5WUZ9vYE-2" value="&lt;font style=&quot;font-size: 19px;&quot; face=&quot;Times New Roman&quot;&gt;h&lt;/font&gt;" style="text;html=1;strokeColor=none;fillColor=none;align=center;verticalAlign=middle;whiteSpace=wrap;rounded=0;fontSize=11;fontFamily=Helvetica;fontColor=default;" vertex="1" parent="2EnQdZIcltZA5WUZ9vYE-22">
          <mxGeometry y="105" width="60" height="30" as="geometry" />
        </mxCell>
        <mxCell id="2EnQdZIcltZA5WUZ9vYE-3" value="&lt;font style=&quot;font-size: 23px;&quot;&gt;$$ \Bigg \{$$&lt;/font&gt;" style="text;html=1;strokeColor=none;fillColor=none;align=center;verticalAlign=middle;whiteSpace=wrap;rounded=0;fontSize=11;fontFamily=Helvetica;fontColor=default;" vertex="1" parent="2EnQdZIcltZA5WUZ9vYE-22">
          <mxGeometry x="24" y="105" width="60" height="30" as="geometry" />
        </mxCell>
        <mxCell id="2EnQdZIcltZA5WUZ9vYE-4" value="&lt;font style=&quot;font-size: 12px;&quot;&gt;$$A_L$$&lt;/font&gt;" style="rounded=0;whiteSpace=wrap;html=1;direction=west;" vertex="1" parent="2EnQdZIcltZA5WUZ9vYE-22">
          <mxGeometry x="65" y="80" width="40" height="80" as="geometry" />
        </mxCell>
        <mxCell id="2EnQdZIcltZA5WUZ9vYE-5" style="edgeStyle=none;shape=connector;rounded=0;orthogonalLoop=1;jettySize=auto;html=1;exitX=0;exitY=1;exitDx=0;exitDy=0;entryX=0.5;entryY=1;entryDx=0;entryDy=0;labelBackgroundColor=default;strokeColor=default;align=center;verticalAlign=middle;fontFamily=Helvetica;fontSize=11;fontColor=default;endArrow=none;endFill=0;" edge="1" parent="2EnQdZIcltZA5WUZ9vYE-22" source="2EnQdZIcltZA5WUZ9vYE-1" target="2EnQdZIcltZA5WUZ9vYE-4">
          <mxGeometry relative="1" as="geometry" />
        </mxCell>
        <mxCell id="2EnQdZIcltZA5WUZ9vYE-9" style="edgeStyle=none;shape=connector;rounded=0;orthogonalLoop=1;jettySize=auto;html=1;exitX=1;exitY=1;exitDx=0;exitDy=0;entryX=0.5;entryY=1;entryDx=0;entryDy=0;labelBackgroundColor=default;strokeColor=default;align=center;verticalAlign=middle;fontFamily=Helvetica;fontSize=11;fontColor=default;endArrow=none;endFill=0;" edge="1" parent="2EnQdZIcltZA5WUZ9vYE-22" source="2EnQdZIcltZA5WUZ9vYE-1">
          <mxGeometry relative="1" as="geometry">
            <mxPoint x="182.9999999999999" y="80" as="targetPoint" />
          </mxGeometry>
        </mxCell>
        <mxCell id="2EnQdZIcltZA5WUZ9vYE-13" value="" style="group" vertex="1" connectable="0" parent="2EnQdZIcltZA5WUZ9vYE-22">
          <mxGeometry x="65" y="160" width="40" height="40" as="geometry" />
        </mxCell>
        <mxCell id="2EnQdZIcltZA5WUZ9vYE-14" value="" style="rounded=0;whiteSpace=wrap;html=1;dashed=1;" vertex="1" parent="2EnQdZIcltZA5WUZ9vYE-13">
          <mxGeometry width="40" height="40" as="geometry" />
        </mxCell>
        <mxCell id="2EnQdZIcltZA5WUZ9vYE-16" value="" style="group" vertex="1" connectable="0" parent="2EnQdZIcltZA5WUZ9vYE-22">
          <mxGeometry x="163" y="80" width="107" height="80" as="geometry" />
        </mxCell>
        <mxCell id="2EnQdZIcltZA5WUZ9vYE-17" value="&lt;font style=&quot;font-size: 19px;&quot; face=&quot;Times New Roman&quot;&gt;h&lt;/font&gt;" style="text;html=1;strokeColor=none;fillColor=none;align=center;verticalAlign=middle;whiteSpace=wrap;rounded=0;fontSize=11;fontFamily=Helvetica;fontColor=default;" vertex="1" parent="2EnQdZIcltZA5WUZ9vYE-16">
          <mxGeometry x="44" y="24" width="60" height="30" as="geometry" />
        </mxCell>
        <mxCell id="2EnQdZIcltZA5WUZ9vYE-18" value="" style="group" vertex="1" connectable="0" parent="2EnQdZIcltZA5WUZ9vYE-16">
          <mxGeometry width="81" height="80" as="geometry" />
        </mxCell>
        <mxCell id="2EnQdZIcltZA5WUZ9vYE-19" value="$$A_R$$" style="rounded=0;whiteSpace=wrap;html=1;" vertex="1" parent="2EnQdZIcltZA5WUZ9vYE-18">
          <mxGeometry width="40" height="80" as="geometry" />
        </mxCell>
        <mxCell id="2EnQdZIcltZA5WUZ9vYE-20" value="&lt;font style=&quot;font-size: 23px;&quot;&gt;$$ \Bigg \}$$&lt;/font&gt;" style="text;html=1;strokeColor=none;fillColor=none;align=center;verticalAlign=middle;whiteSpace=wrap;rounded=0;fontSize=11;fontFamily=Helvetica;fontColor=default;" vertex="1" parent="2EnQdZIcltZA5WUZ9vYE-18">
          <mxGeometry x="21" y="24" width="60" height="30" as="geometry" />
        </mxCell>
        <mxCell id="2EnQdZIcltZA5WUZ9vYE-21" value="&lt;span style=&quot;font-size: 19px;&quot;&gt;(b)&lt;/span&gt;" style="text;html=1;strokeColor=none;fillColor=none;align=center;verticalAlign=middle;whiteSpace=wrap;rounded=0;fontSize=11;fontFamily=Times New Roman;fontColor=default;" vertex="1" parent="2EnQdZIcltZA5WUZ9vYE-22">
          <mxGeometry x="105" y="192" width="60" height="30" as="geometry" />
        </mxCell>
        <mxCell id="2EnQdZIcltZA5WUZ9vYE-23" value="" style="group" vertex="1" connectable="0" parent="1">
          <mxGeometry x="-220" y="160" width="270" height="222" as="geometry" />
        </mxCell>
        <mxCell id="2EnQdZIcltZA5WUZ9vYE-24" value="A" style="ellipse;whiteSpace=wrap;html=1;fontFamily=Times New Roman;fontSize=19;" vertex="1" parent="2EnQdZIcltZA5WUZ9vYE-23">
          <mxGeometry x="115" width="40" height="40" as="geometry" />
        </mxCell>
        <mxCell id="2EnQdZIcltZA5WUZ9vYE-25" value="&lt;font style=&quot;font-size: 19px;&quot; face=&quot;Times New Roman&quot;&gt;h-1&lt;/font&gt;" style="text;html=1;strokeColor=none;fillColor=none;align=center;verticalAlign=middle;whiteSpace=wrap;rounded=0;fontSize=11;fontFamily=Helvetica;fontColor=default;" vertex="1" parent="2EnQdZIcltZA5WUZ9vYE-23">
          <mxGeometry x="-1" y="85" width="60" height="30" as="geometry" />
        </mxCell>
        <mxCell id="2EnQdZIcltZA5WUZ9vYE-26" value="&lt;font style=&quot;font-size: 11px;&quot;&gt;$$ \Bigg \{$$&lt;/font&gt;" style="text;html=1;strokeColor=none;fillColor=none;align=center;verticalAlign=middle;whiteSpace=wrap;rounded=0;fontSize=11;fontFamily=Helvetica;fontColor=default;" vertex="1" parent="2EnQdZIcltZA5WUZ9vYE-23">
          <mxGeometry x="24" y="85" width="60" height="30" as="geometry" />
        </mxCell>
        <mxCell id="2EnQdZIcltZA5WUZ9vYE-27" value="&lt;font style=&quot;font-size: 12px;&quot;&gt;$$A_L$$&lt;/font&gt;" style="rounded=0;whiteSpace=wrap;html=1;direction=west;" vertex="1" parent="2EnQdZIcltZA5WUZ9vYE-23">
          <mxGeometry x="65" y="80" width="40" height="40" as="geometry" />
        </mxCell>
        <mxCell id="2EnQdZIcltZA5WUZ9vYE-28" style="edgeStyle=none;shape=connector;rounded=0;orthogonalLoop=1;jettySize=auto;html=1;exitX=0;exitY=1;exitDx=0;exitDy=0;entryX=0.5;entryY=1;entryDx=0;entryDy=0;labelBackgroundColor=default;strokeColor=default;align=center;verticalAlign=middle;fontFamily=Helvetica;fontSize=11;fontColor=default;endArrow=none;endFill=0;" edge="1" parent="2EnQdZIcltZA5WUZ9vYE-23" source="2EnQdZIcltZA5WUZ9vYE-24" target="2EnQdZIcltZA5WUZ9vYE-27">
          <mxGeometry relative="1" as="geometry" />
        </mxCell>
        <mxCell id="2EnQdZIcltZA5WUZ9vYE-29" style="edgeStyle=none;shape=connector;rounded=0;orthogonalLoop=1;jettySize=auto;html=1;exitX=1;exitY=1;exitDx=0;exitDy=0;entryX=0.5;entryY=1;entryDx=0;entryDy=0;labelBackgroundColor=default;strokeColor=default;align=center;verticalAlign=middle;fontFamily=Helvetica;fontSize=11;fontColor=default;endArrow=none;endFill=0;" edge="1" parent="2EnQdZIcltZA5WUZ9vYE-23" source="2EnQdZIcltZA5WUZ9vYE-24">
          <mxGeometry relative="1" as="geometry">
            <mxPoint x="182.9999999999999" y="80" as="targetPoint" />
          </mxGeometry>
        </mxCell>
        <mxCell id="2EnQdZIcltZA5WUZ9vYE-30" value="" style="group" vertex="1" connectable="0" parent="2EnQdZIcltZA5WUZ9vYE-23">
          <mxGeometry x="65" y="120" width="40" height="40" as="geometry" />
        </mxCell>
        <mxCell id="2EnQdZIcltZA5WUZ9vYE-31" value="" style="rounded=0;whiteSpace=wrap;html=1;dashed=1;" vertex="1" parent="2EnQdZIcltZA5WUZ9vYE-30">
          <mxGeometry width="40" height="40" as="geometry" />
        </mxCell>
        <mxCell id="2EnQdZIcltZA5WUZ9vYE-32" value="" style="group" vertex="1" connectable="0" parent="2EnQdZIcltZA5WUZ9vYE-23">
          <mxGeometry x="163" y="80" width="107" height="80" as="geometry" />
        </mxCell>
        <mxCell id="2EnQdZIcltZA5WUZ9vYE-33" value="&lt;font style=&quot;font-size: 19px;&quot; face=&quot;Times New Roman&quot;&gt;h&lt;/font&gt;" style="text;html=1;strokeColor=none;fillColor=none;align=center;verticalAlign=middle;whiteSpace=wrap;rounded=0;fontSize=11;fontFamily=Helvetica;fontColor=default;" vertex="1" parent="2EnQdZIcltZA5WUZ9vYE-32">
          <mxGeometry x="46" y="24" width="60" height="30" as="geometry" />
        </mxCell>
        <mxCell id="2EnQdZIcltZA5WUZ9vYE-34" value="" style="group" vertex="1" connectable="0" parent="2EnQdZIcltZA5WUZ9vYE-32">
          <mxGeometry width="81" height="80" as="geometry" />
        </mxCell>
        <mxCell id="2EnQdZIcltZA5WUZ9vYE-35" value="$$A_R$$" style="rounded=0;whiteSpace=wrap;html=1;" vertex="1" parent="2EnQdZIcltZA5WUZ9vYE-34">
          <mxGeometry width="40" height="80" as="geometry" />
        </mxCell>
        <mxCell id="2EnQdZIcltZA5WUZ9vYE-36" value="&lt;font style=&quot;font-size: 23px;&quot;&gt;$$ \Bigg \}$$&lt;/font&gt;" style="text;html=1;strokeColor=none;fillColor=none;align=center;verticalAlign=middle;whiteSpace=wrap;rounded=0;fontSize=11;fontFamily=Helvetica;fontColor=default;" vertex="1" parent="2EnQdZIcltZA5WUZ9vYE-34">
          <mxGeometry x="21" y="24" width="60" height="30" as="geometry" />
        </mxCell>
        <mxCell id="2EnQdZIcltZA5WUZ9vYE-37" value="&lt;span style=&quot;font-size: 19px;&quot;&gt;(a)&lt;/span&gt;" style="text;html=1;strokeColor=none;fillColor=none;align=center;verticalAlign=middle;whiteSpace=wrap;rounded=0;fontSize=11;fontFamily=Times New Roman;fontColor=default;" vertex="1" parent="2EnQdZIcltZA5WUZ9vYE-23">
          <mxGeometry x="105" y="192" width="60" height="30" as="geometry" />
        </mxCell>
        <mxCell id="2EnQdZIcltZA5WUZ9vYE-69" value="" style="group" vertex="1" connectable="0" parent="1">
          <mxGeometry x="300" y="160" width="331" height="560" as="geometry" />
        </mxCell>
        <mxCell id="2EnQdZIcltZA5WUZ9vYE-58" value="" style="group" vertex="1" connectable="0" parent="2EnQdZIcltZA5WUZ9vYE-69">
          <mxGeometry width="303" height="560" as="geometry" />
        </mxCell>
        <mxCell id="2EnQdZIcltZA5WUZ9vYE-67" style="edgeStyle=none;shape=connector;rounded=0;orthogonalLoop=1;jettySize=auto;html=1;exitX=0;exitY=1;exitDx=0;exitDy=0;entryX=0.5;entryY=1;entryDx=0;entryDy=0;labelBackgroundColor=default;strokeColor=default;align=center;verticalAlign=middle;fontFamily=Helvetica;fontSize=11;fontColor=default;endArrow=none;endFill=0;" edge="1" parent="2EnQdZIcltZA5WUZ9vYE-58" source="2EnQdZIcltZA5WUZ9vYE-40" target="2EnQdZIcltZA5WUZ9vYE-45">
          <mxGeometry relative="1" as="geometry" />
        </mxCell>
        <mxCell id="2EnQdZIcltZA5WUZ9vYE-40" value="A" style="ellipse;whiteSpace=wrap;html=1;fontFamily=Times New Roman;fontSize=19;fontColor=default;" vertex="1" parent="2EnQdZIcltZA5WUZ9vYE-58">
          <mxGeometry x="102" width="40" height="40" as="geometry" />
        </mxCell>
        <mxCell id="2EnQdZIcltZA5WUZ9vYE-41" value="&lt;font style=&quot;font-size: 19px;&quot; face=&quot;Times New Roman&quot;&gt;B&lt;/font&gt;" style="ellipse;whiteSpace=wrap;html=1;aspect=fixed;fontFamily=Helvetica;fontSize=11;fontColor=default;" vertex="1" parent="2EnQdZIcltZA5WUZ9vYE-58">
          <mxGeometry x="172" y="70" width="40" height="40" as="geometry" />
        </mxCell>
        <mxCell id="2EnQdZIcltZA5WUZ9vYE-42" style="edgeStyle=none;shape=connector;rounded=0;orthogonalLoop=1;jettySize=auto;html=1;exitX=1;exitY=1;exitDx=0;exitDy=0;labelBackgroundColor=default;strokeColor=default;align=center;verticalAlign=middle;fontFamily=Helvetica;fontSize=11;fontColor=default;endArrow=none;endFill=0;" edge="1" parent="2EnQdZIcltZA5WUZ9vYE-58" source="2EnQdZIcltZA5WUZ9vYE-40" target="2EnQdZIcltZA5WUZ9vYE-41">
          <mxGeometry relative="1" as="geometry" />
        </mxCell>
        <mxCell id="2EnQdZIcltZA5WUZ9vYE-43" value="&lt;font style=&quot;font-size: 23px;&quot;&gt;$$ \Bigg \{$$&lt;/font&gt;" style="text;html=1;strokeColor=none;fillColor=none;align=center;verticalAlign=middle;whiteSpace=wrap;rounded=0;fontSize=11;fontFamily=Helvetica;fontColor=default;" vertex="1" parent="2EnQdZIcltZA5WUZ9vYE-58">
          <mxGeometry y="105" width="60" height="30" as="geometry" />
        </mxCell>
        <mxCell id="2EnQdZIcltZA5WUZ9vYE-44" value="" style="group;fontFamily=Helvetica;fontSize=11;fontColor=default;" vertex="1" connectable="0" parent="2EnQdZIcltZA5WUZ9vYE-58">
          <mxGeometry x="41" y="80" width="40" height="122" as="geometry" />
        </mxCell>
        <mxCell id="2EnQdZIcltZA5WUZ9vYE-45" value="&lt;font style=&quot;font-size: 12px;&quot;&gt;$$A_L$$&lt;/font&gt;" style="rounded=0;whiteSpace=wrap;html=1;direction=west;fontFamily=Helvetica;fontSize=11;fontColor=default;" vertex="1" parent="2EnQdZIcltZA5WUZ9vYE-44">
          <mxGeometry width="40" height="80" as="geometry" />
        </mxCell>
        <mxCell id="2EnQdZIcltZA5WUZ9vYE-61" value="" style="group" vertex="1" connectable="0" parent="2EnQdZIcltZA5WUZ9vYE-44">
          <mxGeometry y="82" width="40" height="40" as="geometry" />
        </mxCell>
        <mxCell id="2EnQdZIcltZA5WUZ9vYE-62" value="" style="rounded=0;whiteSpace=wrap;html=1;dashed=1;" vertex="1" parent="2EnQdZIcltZA5WUZ9vYE-61">
          <mxGeometry y="-2" width="40" height="40" as="geometry" />
        </mxCell>
        <mxCell id="2EnQdZIcltZA5WUZ9vYE-46" value="" style="group" vertex="1" connectable="0" parent="2EnQdZIcltZA5WUZ9vYE-58">
          <mxGeometry x="122" y="150" width="107" height="80" as="geometry" />
        </mxCell>
        <mxCell id="2EnQdZIcltZA5WUZ9vYE-48" value="" style="group" vertex="1" connectable="0" parent="2EnQdZIcltZA5WUZ9vYE-46">
          <mxGeometry width="100" height="80" as="geometry" />
        </mxCell>
        <mxCell id="2EnQdZIcltZA5WUZ9vYE-49" value="$$B_L$$" style="rounded=0;whiteSpace=wrap;html=1;" vertex="1" parent="2EnQdZIcltZA5WUZ9vYE-48">
          <mxGeometry width="40" height="40" as="geometry" />
        </mxCell>
        <mxCell id="2EnQdZIcltZA5WUZ9vYE-59" value="&lt;font style=&quot;font-size: 11px;&quot;&gt;$$ \Bigg \}$$&lt;/font&gt;" style="text;html=1;strokeColor=none;fillColor=none;align=center;verticalAlign=middle;whiteSpace=wrap;rounded=0;fontSize=11;fontFamily=Helvetica;fontColor=default;" vertex="1" parent="2EnQdZIcltZA5WUZ9vYE-48">
          <mxGeometry x="16" y="5" width="60" height="30" as="geometry" />
        </mxCell>
        <mxCell id="2EnQdZIcltZA5WUZ9vYE-47" value="&lt;font style=&quot;font-size: 19px;&quot; face=&quot;Times New Roman&quot;&gt;h-2&lt;/font&gt;" style="text;html=1;strokeColor=none;fillColor=none;align=center;verticalAlign=middle;whiteSpace=wrap;rounded=0;fontSize=11;fontFamily=Helvetica;fontColor=default;" vertex="1" parent="2EnQdZIcltZA5WUZ9vYE-48">
          <mxGeometry x="38" y="5" width="60" height="30" as="geometry" />
        </mxCell>
        <mxCell id="2EnQdZIcltZA5WUZ9vYE-57" value="&lt;span style=&quot;font-size: 19px;&quot;&gt;&lt;font face=&quot;Times New Roman&quot;&gt;(c)&lt;/font&gt;&lt;/span&gt;" style="text;html=1;strokeColor=none;fillColor=none;align=center;verticalAlign=middle;whiteSpace=wrap;rounded=0;fontSize=11;fontFamily=Helvetica;fontColor=default;" vertex="1" parent="2EnQdZIcltZA5WUZ9vYE-48">
          <mxGeometry x="-31" y="43" width="62" height="30" as="geometry" />
        </mxCell>
        <mxCell id="2EnQdZIcltZA5WUZ9vYE-51" style="edgeStyle=none;shape=connector;rounded=0;orthogonalLoop=1;jettySize=auto;html=1;exitX=0;exitY=1;exitDx=0;exitDy=0;entryX=0.5;entryY=0;entryDx=0;entryDy=0;labelBackgroundColor=default;strokeColor=default;align=center;verticalAlign=middle;fontFamily=Helvetica;fontSize=11;fontColor=default;endArrow=none;endFill=0;" edge="1" parent="2EnQdZIcltZA5WUZ9vYE-58" source="2EnQdZIcltZA5WUZ9vYE-41" target="2EnQdZIcltZA5WUZ9vYE-49">
          <mxGeometry relative="1" as="geometry" />
        </mxCell>
        <mxCell id="2EnQdZIcltZA5WUZ9vYE-52" value="" style="group" vertex="1" connectable="0" parent="2EnQdZIcltZA5WUZ9vYE-58">
          <mxGeometry x="222" y="150" width="81" height="80" as="geometry" />
        </mxCell>
        <mxCell id="2EnQdZIcltZA5WUZ9vYE-53" value="$$B_R$$" style="rounded=0;whiteSpace=wrap;html=1;" vertex="1" parent="2EnQdZIcltZA5WUZ9vYE-52">
          <mxGeometry width="40" height="80" as="geometry" />
        </mxCell>
        <mxCell id="2EnQdZIcltZA5WUZ9vYE-54" value="&lt;font style=&quot;font-size: 23px;&quot;&gt;$$ \Bigg \}$$&lt;/font&gt;" style="text;html=1;strokeColor=none;fillColor=none;align=center;verticalAlign=middle;whiteSpace=wrap;rounded=0;fontSize=11;fontFamily=Helvetica;fontColor=default;" vertex="1" parent="2EnQdZIcltZA5WUZ9vYE-52">
          <mxGeometry x="21" y="24" width="60" height="30" as="geometry" />
        </mxCell>
        <mxCell id="2EnQdZIcltZA5WUZ9vYE-55" style="edgeStyle=none;shape=connector;rounded=0;orthogonalLoop=1;jettySize=auto;html=1;exitX=1;exitY=1;exitDx=0;exitDy=0;entryX=0.5;entryY=0;entryDx=0;entryDy=0;labelBackgroundColor=default;strokeColor=default;align=center;verticalAlign=middle;fontFamily=Helvetica;fontSize=11;fontColor=default;endArrow=none;endFill=0;" edge="1" parent="2EnQdZIcltZA5WUZ9vYE-58" source="2EnQdZIcltZA5WUZ9vYE-41" target="2EnQdZIcltZA5WUZ9vYE-53">
          <mxGeometry relative="1" as="geometry" />
        </mxCell>
        <mxCell id="2EnQdZIcltZA5WUZ9vYE-68" value="&lt;font style=&quot;font-size: 19px;&quot; face=&quot;Times New Roman&quot;&gt;h-2&lt;/font&gt;" style="text;html=1;strokeColor=none;fillColor=none;align=center;verticalAlign=middle;whiteSpace=wrap;rounded=0;fontSize=11;fontFamily=Helvetica;fontColor=default;" vertex="1" parent="2EnQdZIcltZA5WUZ9vYE-58">
          <mxGeometry x="-28" y="104" width="60" height="30" as="geometry" />
        </mxCell>
        <mxCell id="2EnQdZIcltZA5WUZ9vYE-105" value="" style="group" vertex="1" connectable="0" parent="2EnQdZIcltZA5WUZ9vYE-58">
          <mxGeometry x="-55.5" y="260" width="342.5" height="300" as="geometry" />
        </mxCell>
        <mxCell id="2EnQdZIcltZA5WUZ9vYE-106" value="" style="group" vertex="1" connectable="0" parent="2EnQdZIcltZA5WUZ9vYE-105">
          <mxGeometry width="342.5" height="300" as="geometry" />
        </mxCell>
        <mxCell id="2EnQdZIcltZA5WUZ9vYE-107" style="edgeStyle=none;shape=connector;rounded=0;orthogonalLoop=1;jettySize=auto;html=1;exitX=0;exitY=1;exitDx=0;exitDy=0;entryX=0.5;entryY=1;entryDx=0;entryDy=0;labelBackgroundColor=default;strokeColor=default;align=center;verticalAlign=middle;fontFamily=Helvetica;fontSize=11;fontColor=default;endArrow=none;endFill=0;" edge="1" parent="2EnQdZIcltZA5WUZ9vYE-106" source="2EnQdZIcltZA5WUZ9vYE-108" target="2EnQdZIcltZA5WUZ9vYE-113">
          <mxGeometry relative="1" as="geometry" />
        </mxCell>
        <mxCell id="2EnQdZIcltZA5WUZ9vYE-108" value="A" style="ellipse;whiteSpace=wrap;html=1;fontFamily=Times New Roman;fontSize=19;fontColor=default;" vertex="1" parent="2EnQdZIcltZA5WUZ9vYE-106">
          <mxGeometry x="102" width="40" height="40" as="geometry" />
        </mxCell>
        <mxCell id="2EnQdZIcltZA5WUZ9vYE-109" value="&lt;font style=&quot;font-size: 19px;&quot; face=&quot;Times New Roman&quot;&gt;B&lt;/font&gt;" style="ellipse;whiteSpace=wrap;html=1;aspect=fixed;fontFamily=Helvetica;fontSize=11;fontColor=default;" vertex="1" parent="2EnQdZIcltZA5WUZ9vYE-106">
          <mxGeometry x="172" y="70" width="40" height="40" as="geometry" />
        </mxCell>
        <mxCell id="2EnQdZIcltZA5WUZ9vYE-110" style="edgeStyle=none;shape=connector;rounded=0;orthogonalLoop=1;jettySize=auto;html=1;exitX=1;exitY=1;exitDx=0;exitDy=0;labelBackgroundColor=default;strokeColor=default;align=center;verticalAlign=middle;fontFamily=Helvetica;fontSize=11;fontColor=default;endArrow=none;endFill=0;" edge="1" parent="2EnQdZIcltZA5WUZ9vYE-106" source="2EnQdZIcltZA5WUZ9vYE-108" target="2EnQdZIcltZA5WUZ9vYE-109">
          <mxGeometry relative="1" as="geometry" />
        </mxCell>
        <mxCell id="2EnQdZIcltZA5WUZ9vYE-111" value="&lt;font style=&quot;font-size: 23px;&quot;&gt;$$ \Bigg \{$$&lt;/font&gt;" style="text;html=1;strokeColor=none;fillColor=none;align=center;verticalAlign=middle;whiteSpace=wrap;rounded=0;fontSize=11;fontFamily=Helvetica;fontColor=default;" vertex="1" parent="2EnQdZIcltZA5WUZ9vYE-106">
          <mxGeometry y="105" width="60" height="30" as="geometry" />
        </mxCell>
        <mxCell id="2EnQdZIcltZA5WUZ9vYE-112" value="" style="group;fontFamily=Helvetica;fontSize=11;fontColor=default;" vertex="1" connectable="0" parent="2EnQdZIcltZA5WUZ9vYE-106">
          <mxGeometry x="41" y="80" width="40" height="122" as="geometry" />
        </mxCell>
        <mxCell id="2EnQdZIcltZA5WUZ9vYE-113" value="&lt;font style=&quot;font-size: 12px;&quot;&gt;$$A_L$$&lt;/font&gt;" style="rounded=0;whiteSpace=wrap;html=1;direction=west;fontFamily=Helvetica;fontSize=11;fontColor=default;" vertex="1" parent="2EnQdZIcltZA5WUZ9vYE-112">
          <mxGeometry width="40" height="80" as="geometry" />
        </mxCell>
        <mxCell id="2EnQdZIcltZA5WUZ9vYE-114" value="" style="group" vertex="1" connectable="0" parent="2EnQdZIcltZA5WUZ9vYE-112">
          <mxGeometry y="82" width="40" height="40" as="geometry" />
        </mxCell>
        <mxCell id="2EnQdZIcltZA5WUZ9vYE-115" value="" style="rounded=0;whiteSpace=wrap;html=1;dashed=1;" vertex="1" parent="2EnQdZIcltZA5WUZ9vYE-114">
          <mxGeometry y="-2" width="40" height="40" as="geometry" />
        </mxCell>
        <mxCell id="2EnQdZIcltZA5WUZ9vYE-116" value="" style="group" vertex="1" connectable="0" parent="2EnQdZIcltZA5WUZ9vYE-106">
          <mxGeometry x="122" y="150" width="107" height="80" as="geometry" />
        </mxCell>
        <mxCell id="2EnQdZIcltZA5WUZ9vYE-117" style="edgeStyle=none;shape=connector;rounded=0;orthogonalLoop=1;jettySize=auto;html=1;exitX=0;exitY=1;exitDx=0;exitDy=0;entryX=0.5;entryY=0;entryDx=0;entryDy=0;labelBackgroundColor=default;strokeColor=default;align=center;verticalAlign=middle;fontFamily=Helvetica;fontSize=11;fontColor=default;endArrow=none;endFill=0;" edge="1" parent="2EnQdZIcltZA5WUZ9vYE-106" source="2EnQdZIcltZA5WUZ9vYE-109">
          <mxGeometry relative="1" as="geometry">
            <mxPoint x="142" y="150" as="targetPoint" />
          </mxGeometry>
        </mxCell>
        <mxCell id="2EnQdZIcltZA5WUZ9vYE-118" style="edgeStyle=none;shape=connector;rounded=0;orthogonalLoop=1;jettySize=auto;html=1;exitX=1;exitY=1;exitDx=0;exitDy=0;entryX=0.5;entryY=0;entryDx=0;entryDy=0;labelBackgroundColor=default;strokeColor=default;align=center;verticalAlign=middle;fontFamily=Helvetica;fontSize=11;fontColor=default;endArrow=none;endFill=0;" edge="1" parent="2EnQdZIcltZA5WUZ9vYE-106" source="2EnQdZIcltZA5WUZ9vYE-109">
          <mxGeometry relative="1" as="geometry">
            <mxPoint x="242" y="150" as="targetPoint" />
          </mxGeometry>
        </mxCell>
        <mxCell id="2EnQdZIcltZA5WUZ9vYE-119" value="&lt;font style=&quot;font-size: 19px;&quot; face=&quot;Times New Roman&quot;&gt;h-2&lt;/font&gt;" style="text;html=1;strokeColor=none;fillColor=none;align=center;verticalAlign=middle;whiteSpace=wrap;rounded=0;fontSize=11;fontFamily=Helvetica;fontColor=default;" vertex="1" parent="2EnQdZIcltZA5WUZ9vYE-106">
          <mxGeometry x="-28" y="104" width="60" height="30" as="geometry" />
        </mxCell>
        <mxCell id="2EnQdZIcltZA5WUZ9vYE-123" value="" style="group" vertex="1" connectable="0" parent="2EnQdZIcltZA5WUZ9vYE-106">
          <mxGeometry x="122" y="150" width="81" height="80" as="geometry" />
        </mxCell>
        <mxCell id="2EnQdZIcltZA5WUZ9vYE-124" value="$$B_L$$" style="rounded=0;whiteSpace=wrap;html=1;" vertex="1" parent="2EnQdZIcltZA5WUZ9vYE-123">
          <mxGeometry width="40" height="80" as="geometry" />
        </mxCell>
        <mxCell id="2EnQdZIcltZA5WUZ9vYE-125" value="&lt;font style=&quot;font-size: 23px;&quot;&gt;$$ \Bigg \}$$&lt;/font&gt;" style="text;html=1;strokeColor=none;fillColor=none;align=center;verticalAlign=middle;whiteSpace=wrap;rounded=0;fontSize=11;fontFamily=Helvetica;fontColor=default;" vertex="1" parent="2EnQdZIcltZA5WUZ9vYE-123">
          <mxGeometry x="21" y="24" width="60" height="30" as="geometry" />
        </mxCell>
        <mxCell id="2EnQdZIcltZA5WUZ9vYE-126" value="&lt;font style=&quot;font-size: 19px;&quot; face=&quot;Times New Roman&quot;&gt;h-1&lt;/font&gt;" style="text;html=1;strokeColor=none;fillColor=none;align=center;verticalAlign=middle;whiteSpace=wrap;rounded=0;fontSize=11;fontFamily=Helvetica;fontColor=default;" vertex="1" parent="2EnQdZIcltZA5WUZ9vYE-106">
          <mxGeometry x="171" y="174" width="60" height="30" as="geometry" />
        </mxCell>
        <mxCell id="2EnQdZIcltZA5WUZ9vYE-133" value="" style="group" vertex="1" connectable="0" parent="2EnQdZIcltZA5WUZ9vYE-106">
          <mxGeometry x="225.5" y="150" width="107" height="80" as="geometry" />
        </mxCell>
        <mxCell id="2EnQdZIcltZA5WUZ9vYE-134" value="" style="group" vertex="1" connectable="0" parent="2EnQdZIcltZA5WUZ9vYE-106">
          <mxGeometry x="225.5" y="150" width="81" height="80" as="geometry" />
        </mxCell>
        <mxCell id="2EnQdZIcltZA5WUZ9vYE-135" value="$$B_L$$" style="rounded=0;whiteSpace=wrap;html=1;" vertex="1" parent="2EnQdZIcltZA5WUZ9vYE-134">
          <mxGeometry width="40" height="80" as="geometry" />
        </mxCell>
        <mxCell id="2EnQdZIcltZA5WUZ9vYE-136" value="&lt;font style=&quot;font-size: 23px;&quot;&gt;$$ \Bigg \}$$&lt;/font&gt;" style="text;html=1;strokeColor=none;fillColor=none;align=center;verticalAlign=middle;whiteSpace=wrap;rounded=0;fontSize=11;fontFamily=Helvetica;fontColor=default;" vertex="1" parent="2EnQdZIcltZA5WUZ9vYE-134">
          <mxGeometry x="21" y="24" width="60" height="30" as="geometry" />
        </mxCell>
        <mxCell id="2EnQdZIcltZA5WUZ9vYE-137" value="&lt;font style=&quot;font-size: 19px;&quot; face=&quot;Times New Roman&quot;&gt;h-1&lt;/font&gt;" style="text;html=1;strokeColor=none;fillColor=none;align=center;verticalAlign=middle;whiteSpace=wrap;rounded=0;fontSize=11;fontFamily=Helvetica;fontColor=default;" vertex="1" parent="2EnQdZIcltZA5WUZ9vYE-106">
          <mxGeometry x="274.5" y="174" width="60" height="30" as="geometry" />
        </mxCell>
        <mxCell id="2EnQdZIcltZA5WUZ9vYE-138" value="" style="group" vertex="1" connectable="0" parent="2EnQdZIcltZA5WUZ9vYE-106">
          <mxGeometry x="235.5" y="160" width="107" height="80" as="geometry" />
        </mxCell>
        <mxCell id="2EnQdZIcltZA5WUZ9vYE-139" value="&lt;span style=&quot;font-size: 19px;&quot;&gt;(e)&lt;/span&gt;" style="text;html=1;strokeColor=none;fillColor=none;align=center;verticalAlign=middle;whiteSpace=wrap;rounded=0;fontSize=11;fontFamily=Times New Roman;fontColor=default;" vertex="1" parent="2EnQdZIcltZA5WUZ9vYE-106">
          <mxGeometry x="92" y="240" width="60" height="30" as="geometry" />
        </mxCell>
        <mxCell id="2EnQdZIcltZA5WUZ9vYE-60" value="&lt;font style=&quot;font-size: 19px;&quot; face=&quot;Times New Roman&quot;&gt;h-1&lt;/font&gt;" style="text;html=1;strokeColor=none;fillColor=none;align=center;verticalAlign=middle;whiteSpace=wrap;rounded=0;fontSize=11;fontFamily=Helvetica;fontColor=default;" vertex="1" parent="2EnQdZIcltZA5WUZ9vYE-69">
          <mxGeometry x="271" y="174" width="60" height="30" as="geometry" />
        </mxCell>
        <mxCell id="2EnQdZIcltZA5WUZ9vYE-70" value="" style="group" vertex="1" connectable="0" parent="1">
          <mxGeometry x="-140" y="420" width="331" height="300" as="geometry" />
        </mxCell>
        <mxCell id="2EnQdZIcltZA5WUZ9vYE-71" value="" style="group" vertex="1" connectable="0" parent="2EnQdZIcltZA5WUZ9vYE-70">
          <mxGeometry width="318" height="300" as="geometry" />
        </mxCell>
        <mxCell id="2EnQdZIcltZA5WUZ9vYE-72" style="edgeStyle=none;shape=connector;rounded=0;orthogonalLoop=1;jettySize=auto;html=1;exitX=0;exitY=1;exitDx=0;exitDy=0;entryX=0.5;entryY=1;entryDx=0;entryDy=0;labelBackgroundColor=default;strokeColor=default;align=center;verticalAlign=middle;fontFamily=Helvetica;fontSize=11;fontColor=default;endArrow=none;endFill=0;" edge="1" parent="2EnQdZIcltZA5WUZ9vYE-71" source="2EnQdZIcltZA5WUZ9vYE-73" target="2EnQdZIcltZA5WUZ9vYE-78">
          <mxGeometry relative="1" as="geometry" />
        </mxCell>
        <mxCell id="2EnQdZIcltZA5WUZ9vYE-73" value="A" style="ellipse;whiteSpace=wrap;html=1;fontFamily=Times New Roman;fontSize=19;fontColor=default;" vertex="1" parent="2EnQdZIcltZA5WUZ9vYE-71">
          <mxGeometry x="102" width="40" height="40" as="geometry" />
        </mxCell>
        <mxCell id="2EnQdZIcltZA5WUZ9vYE-74" value="&lt;font style=&quot;font-size: 19px;&quot; face=&quot;Times New Roman&quot;&gt;B&lt;/font&gt;" style="ellipse;whiteSpace=wrap;html=1;aspect=fixed;fontFamily=Helvetica;fontSize=11;fontColor=default;" vertex="1" parent="2EnQdZIcltZA5WUZ9vYE-71">
          <mxGeometry x="172" y="70" width="40" height="40" as="geometry" />
        </mxCell>
        <mxCell id="2EnQdZIcltZA5WUZ9vYE-75" style="edgeStyle=none;shape=connector;rounded=0;orthogonalLoop=1;jettySize=auto;html=1;exitX=1;exitY=1;exitDx=0;exitDy=0;labelBackgroundColor=default;strokeColor=default;align=center;verticalAlign=middle;fontFamily=Helvetica;fontSize=11;fontColor=default;endArrow=none;endFill=0;" edge="1" parent="2EnQdZIcltZA5WUZ9vYE-71" source="2EnQdZIcltZA5WUZ9vYE-73" target="2EnQdZIcltZA5WUZ9vYE-74">
          <mxGeometry relative="1" as="geometry" />
        </mxCell>
        <mxCell id="2EnQdZIcltZA5WUZ9vYE-76" value="&lt;font style=&quot;font-size: 23px;&quot;&gt;$$ \Bigg \{$$&lt;/font&gt;" style="text;html=1;strokeColor=none;fillColor=none;align=center;verticalAlign=middle;whiteSpace=wrap;rounded=0;fontSize=11;fontFamily=Helvetica;fontColor=default;" vertex="1" parent="2EnQdZIcltZA5WUZ9vYE-71">
          <mxGeometry y="105" width="60" height="30" as="geometry" />
        </mxCell>
        <mxCell id="2EnQdZIcltZA5WUZ9vYE-77" value="" style="group;fontFamily=Helvetica;fontSize=11;fontColor=default;" vertex="1" connectable="0" parent="2EnQdZIcltZA5WUZ9vYE-71">
          <mxGeometry x="41" y="80" width="40" height="122" as="geometry" />
        </mxCell>
        <mxCell id="2EnQdZIcltZA5WUZ9vYE-78" value="&lt;font style=&quot;font-size: 12px;&quot;&gt;$$A_L$$&lt;/font&gt;" style="rounded=0;whiteSpace=wrap;html=1;direction=west;fontFamily=Helvetica;fontSize=11;fontColor=default;" vertex="1" parent="2EnQdZIcltZA5WUZ9vYE-77">
          <mxGeometry width="40" height="80" as="geometry" />
        </mxCell>
        <mxCell id="2EnQdZIcltZA5WUZ9vYE-79" value="" style="group" vertex="1" connectable="0" parent="2EnQdZIcltZA5WUZ9vYE-77">
          <mxGeometry y="82" width="40" height="40" as="geometry" />
        </mxCell>
        <mxCell id="2EnQdZIcltZA5WUZ9vYE-80" value="" style="rounded=0;whiteSpace=wrap;html=1;dashed=1;" vertex="1" parent="2EnQdZIcltZA5WUZ9vYE-79">
          <mxGeometry y="-2" width="40" height="40" as="geometry" />
        </mxCell>
        <mxCell id="2EnQdZIcltZA5WUZ9vYE-81" value="" style="group" vertex="1" connectable="0" parent="2EnQdZIcltZA5WUZ9vYE-71">
          <mxGeometry x="122" y="150" width="107" height="80" as="geometry" />
        </mxCell>
        <mxCell id="2EnQdZIcltZA5WUZ9vYE-87" style="edgeStyle=none;shape=connector;rounded=0;orthogonalLoop=1;jettySize=auto;html=1;exitX=0;exitY=1;exitDx=0;exitDy=0;entryX=0.5;entryY=0;entryDx=0;entryDy=0;labelBackgroundColor=default;strokeColor=default;align=center;verticalAlign=middle;fontFamily=Helvetica;fontSize=11;fontColor=default;endArrow=none;endFill=0;" edge="1" parent="2EnQdZIcltZA5WUZ9vYE-71" source="2EnQdZIcltZA5WUZ9vYE-74">
          <mxGeometry relative="1" as="geometry">
            <mxPoint x="142" y="150" as="targetPoint" />
          </mxGeometry>
        </mxCell>
        <mxCell id="2EnQdZIcltZA5WUZ9vYE-91" style="edgeStyle=none;shape=connector;rounded=0;orthogonalLoop=1;jettySize=auto;html=1;exitX=1;exitY=1;exitDx=0;exitDy=0;entryX=0.5;entryY=0;entryDx=0;entryDy=0;labelBackgroundColor=default;strokeColor=default;align=center;verticalAlign=middle;fontFamily=Helvetica;fontSize=11;fontColor=default;endArrow=none;endFill=0;" edge="1" parent="2EnQdZIcltZA5WUZ9vYE-71" source="2EnQdZIcltZA5WUZ9vYE-74">
          <mxGeometry relative="1" as="geometry">
            <mxPoint x="242" y="150" as="targetPoint" />
          </mxGeometry>
        </mxCell>
        <mxCell id="2EnQdZIcltZA5WUZ9vYE-92" value="&lt;font style=&quot;font-size: 19px;&quot; face=&quot;Times New Roman&quot;&gt;h-2&lt;/font&gt;" style="text;html=1;strokeColor=none;fillColor=none;align=center;verticalAlign=middle;whiteSpace=wrap;rounded=0;fontSize=11;fontFamily=Helvetica;fontColor=default;" vertex="1" parent="2EnQdZIcltZA5WUZ9vYE-71">
          <mxGeometry x="-28" y="104" width="60" height="30" as="geometry" />
        </mxCell>
        <mxCell id="2EnQdZIcltZA5WUZ9vYE-102" value="$$B_R$$" style="rounded=0;whiteSpace=wrap;html=1;" vertex="1" parent="2EnQdZIcltZA5WUZ9vYE-71">
          <mxGeometry x="220" y="150" width="40" height="40" as="geometry" />
        </mxCell>
        <mxCell id="2EnQdZIcltZA5WUZ9vYE-103" value="&lt;font style=&quot;font-size: 11px;&quot;&gt;$$ \Bigg \}$$&lt;/font&gt;" style="text;html=1;strokeColor=none;fillColor=none;align=center;verticalAlign=middle;whiteSpace=wrap;rounded=0;fontSize=11;fontFamily=Helvetica;fontColor=default;" vertex="1" parent="2EnQdZIcltZA5WUZ9vYE-71">
          <mxGeometry x="236" y="155" width="60" height="30" as="geometry" />
        </mxCell>
        <mxCell id="2EnQdZIcltZA5WUZ9vYE-104" value="&lt;font style=&quot;font-size: 19px;&quot; face=&quot;Times New Roman&quot;&gt;h-2&lt;/font&gt;" style="text;html=1;strokeColor=none;fillColor=none;align=center;verticalAlign=middle;whiteSpace=wrap;rounded=0;fontSize=11;fontFamily=Helvetica;fontColor=default;" vertex="1" parent="2EnQdZIcltZA5WUZ9vYE-71">
          <mxGeometry x="258" y="155" width="60" height="30" as="geometry" />
        </mxCell>
        <mxCell id="2EnQdZIcltZA5WUZ9vYE-98" value="" style="group" vertex="1" connectable="0" parent="2EnQdZIcltZA5WUZ9vYE-71">
          <mxGeometry x="122" y="150" width="81" height="80" as="geometry" />
        </mxCell>
        <mxCell id="2EnQdZIcltZA5WUZ9vYE-99" value="$$B_L$$" style="rounded=0;whiteSpace=wrap;html=1;" vertex="1" parent="2EnQdZIcltZA5WUZ9vYE-98">
          <mxGeometry width="40" height="80" as="geometry" />
        </mxCell>
        <mxCell id="2EnQdZIcltZA5WUZ9vYE-100" value="&lt;font style=&quot;font-size: 23px;&quot;&gt;$$ \Bigg \}$$&lt;/font&gt;" style="text;html=1;strokeColor=none;fillColor=none;align=center;verticalAlign=middle;whiteSpace=wrap;rounded=0;fontSize=11;fontFamily=Helvetica;fontColor=default;" vertex="1" parent="2EnQdZIcltZA5WUZ9vYE-98">
          <mxGeometry x="21" y="24" width="60" height="30" as="geometry" />
        </mxCell>
        <mxCell id="2EnQdZIcltZA5WUZ9vYE-101" value="&lt;font style=&quot;font-size: 19px;&quot; face=&quot;Times New Roman&quot;&gt;h-1&lt;/font&gt;" style="text;html=1;strokeColor=none;fillColor=none;align=center;verticalAlign=middle;whiteSpace=wrap;rounded=0;fontSize=11;fontFamily=Helvetica;fontColor=default;" vertex="1" parent="2EnQdZIcltZA5WUZ9vYE-71">
          <mxGeometry x="171" y="174" width="60" height="30" as="geometry" />
        </mxCell>
        <mxCell id="2EnQdZIcltZA5WUZ9vYE-140" value="&lt;span style=&quot;font-size: 19px;&quot;&gt;(d)&lt;/span&gt;" style="text;html=1;strokeColor=none;fillColor=none;align=center;verticalAlign=middle;whiteSpace=wrap;rounded=0;fontSize=11;fontFamily=Times New Roman;fontColor=default;" vertex="1" parent="2EnQdZIcltZA5WUZ9vYE-71">
          <mxGeometry x="92" y="240" width="60" height="30" as="geometry" />
        </mxCell>
        <mxCell id="2EnQdZIcltZA5WUZ9vYE-127" value="" style="group" vertex="1" connectable="0" parent="1">
          <mxGeometry x="376.5" y="580" width="107" height="80" as="geometry" />
        </mxCell>
      </root>
    </mxGraphModel>
  </diagram>
</mxfile>
